<?xml version="1.0" encoding="UTF-8" standalone="no"?><!DOCTYPE svg PUBLIC "-//W3C//DTD SVG 1.1//EN" "http://www.w3.org/Graphics/SVG/1.1/DTD/svg11.dtd"><svg width="100%" height="100%" viewBox="0 0 1500 1500" version="1.1" xmlns="http://www.w3.org/2000/svg" xmlns:xlink="http://www.w3.org/1999/xlink" xml:space="preserve" xmlns:serif="http://www.serif.com/" style="fill-rule:evenodd;clip-rule:evenodd;stroke-linejoin:round;stroke-miterlimit:2;"><g id="Logo"><path id="M" d="M479.66,328.12l110.531,0l144.832,465.635l-65.403,211.462l-135.098,-465.266l-178.529,632.773l-137.616,0l261.489,-845.448l-0.206,0.844Z" style="fill:#00307a;"/><g id="A"><path d="M1020.34,328.12l-110.531,0l-144.832,465.635l65.403,211.462l135.098,-465.266l178.529,632.773l137.616,0l-261.489,-845.448l0.206,0.844Z" style="fill:#0046b2;"/><path d="M694.586,1025.11l54.843,-178.773l55.985,181.468l-38.875,138.917l-31.168,0l-40.785,-141.612Z" style="fill:#0046b2;"/><path d="M1062.38,939.435l-196.257,0l49.064,-33.267l98.129,-0l49.064,33.267Z" style="fill:#0046b2;"/></g></g></svg>